<svg xmlns="http://www.w3.org/2000/svg" viewBox="0 0 64 64" id="shopkeeper"><path fill="#00ccb3" d="M56 19v40a2.006 2.006 0 0 1-2 2H10a2.006 2.006 0 0 1-2-2V19Z"></path><path fill="#00b39d" d="m26 43-2-1v-2.54A3.98 3.98 0 0 0 26 36v-2l1-2v-1a2.006 2.006 0 0 1 2 2v1l-1 2v2a3.98 3.98 0 0 1-2 3.46zm6 6.47a4.02 4.02 0 0 0-2.21-3.58l-.16-.08a3.945 3.945 0 0 1 .37 1.66V51h2zM56 19v5.46A3.98 3.98 0 0 1 54 21a4 4 0 0 1-8 0 4 4 0 0 1-8 0 4 4 0 0 1-8 0 4 4 0 0 1-8 0 4 4 0 0 1-8 0 3.994 3.994 0 0 1-6 3.46V19z"></path><path fill="#ed1c24" d="m53 3 7 10H4l7-10h42z"></path><path fill="#a97c50" d="M56 51v4H8v-4h48zM13 55h38v6H13z"></path><path fill="#00b39d" d="m51 40-1.65 7.43A2.007 2.007 0 0 1 47.4 49h-6.8a2.007 2.007 0 0 1-1.95-1.57L37 40h14Z"></path><path fill="#3d9ae2" d="M30 47.47V51H14v-3.53a4.02 4.02 0 0 1 2.21-3.58l1.5-.75L20 46l2-2 2 2 2.29-2.86 1.5.75A4.02 4.02 0 0 1 30 47.47Z"></path><path fill="#57565c" d="M27 31v1l-1 2-3-2-2 2h-3l-1-1 1-2-2-2h9a2.006 2.006 0 0 1 2 2Z"></path><path fill="#1e81ce" d="M26.29 43.14 24 46l-2-2 2-2 2.29 1.14zM22 44l-2 2-2.29-2.86L20 42l2 2z"></path><path fill="#8b5e3c" d="M13 55h38v2H13z"></path><path fill="#ffc477" d="M24 39v3l-2 2-2-2v-3h4z"></path><path fill="#ffb655" d="M24 39v1.46a3.974 3.974 0 0 1-4 0V39Z"></path><path fill="#ffc477" d="M26 34v2a4 4 0 0 1-8 0v-2h3l2-2Z"></path><path fill="#ff5023" d="M8 23a4 4 0 0 1-4-4v-6h56v6a4 4 0 0 1-8 0 4 4 0 0 1-8 0 4 4 0 0 1-8 0 4 4 0 0 1-8 0 4 4 0 0 1-8 0 4 4 0 0 1-8 0 4 4 0 0 1-4 4Z"></path><path fill="#ff9811" d="m49 38-1.65 7.43A2.007 2.007 0 0 1 45.4 47h-6.8a2.007 2.007 0 0 1-1.95-1.57L35 38h14Z"></path><path fill="#ee8700" d="M43 41h2v3h-2zM39 41h2v3h-2zM37.019 34.195l1.961-.392 1 5-1.961.392zM44.019 38.804l1-5 1.962.393-1.001 5z"></path></svg>