<svg xmlns="http://www.w3.org/2000/svg" width="100" height="100" id="coffee-shop"><path d="M56.226 74.02c.225 0 .452-.05.665-.156.174-.086.343-.165.512-.243l.098-.045c1.044-.482 2.123-.981 3.682-2.542 1.562-1.56 2.062-2.639 2.545-3.684.456-.989.851-1.843 2.192-3.185 1.34-1.34 2.193-1.735 3.19-2.197l.261-.12a1.5 1.5 0 0 0 .312-2.523c-1.302-1.059-2.958-1.618-4.789-1.618-2.753 0-5.592 1.26-7.787 3.455-3.601 3.6-4.505 8.856-2.104 12.229a1.5 1.5 0 0 0 1.223.629zm3.002-10.737c1.613-1.613 3.731-2.577 5.666-2.577.137 0 .271.005.403.014-.459.349-.954.778-1.499 1.323-1.72 1.72-2.291 2.957-2.795 4.048-.423.915-.757 1.638-1.942 2.821-.892.893-1.521 1.302-2.173 1.631-.724-2.171.16-5.081 2.34-7.26zm5.104 5.525c-.459.988-.854 1.842-2.193 3.181-1.338 1.338-2.191 1.734-3.182 2.193l-.283.131a1.498 1.498 0 0 0-.346 2.506c1.319 1.122 3.016 1.715 4.906 1.716 2.754 0 5.593-1.26 7.789-3.456 3.661-3.662 4.529-8.967 2.019-12.342a1.5 1.5 0 0 0-1.869-.449 25.57 25.57 0 0 1-.615.291c-1.043.483-2.122.982-3.682 2.542-1.564 1.563-2.084 2.69-2.544 3.687zm4.664-1.567c.899-.9 1.533-1.309 2.203-1.646.767 2.174-.111 5.175-2.298 7.362-1.614 1.614-3.732 2.577-5.668 2.577a5.57 5.57 0 0 1-.569-.029 14.435 14.435 0 0 0 1.596-1.396c1.716-1.716 2.288-2.951 2.798-4.049.421-.913.754-1.634 1.938-2.819zM36.5 63.5A1.5 1.5 0 0 0 35 65v7a1.5 1.5 0 1 0 3 0v-7a1.5 1.5 0 0 0-1.5-1.5z"></path><path d="M78.27 53H49.73A2.734 2.734 0 0 0 47 55.73v24.54A2.734 2.734 0 0 0 49.73 83h28.54A2.733 2.733 0 0 0 81 80.27V55.73A2.734 2.734 0 0 0 78.27 53zM78 80H50V56h28v24z"></path><path d="m96.222 39.104-14.883-28.03a1.502 1.502 0 0 0-1.325-.796H19.986c-.555 0-1.064.307-1.325.796L3.675 39.299c-.008.015-.011.032-.018.048a1.487 1.487 0 0 0-.1.266c-.006.022-.016.043-.021.065a1.64 1.64 0 0 0-.036.324v8.242a1.5 1.5 0 0 0 1.5 1.5h8V87H7a1.5 1.5 0 1 0 0 3h87a1.5 1.5 0 1 0 0-3h-7V49.745h8a1.5 1.5 0 0 0 1.5-1.5v-8.049c.009-.064.02-.127.02-.194 0-.336-.111-.648-.298-.898zm-3.717-.602H81.094L72.97 13.278h6.142l13.393 25.224zM48.5 13.278v25.225H36.678l2.84-25.225H48.5zm11.983 0 2.84 25.225H51.5V13.278h8.983zM51.5 41.502h12.001v5.221H51.5v-5.221zm-3 5.222h-12v-5.221h12v5.221zm18.001-5.222h12v5.221h-12v-5.221zM33.5 46.724h-12v-5.221h12v5.221zm-15 0h-12v-5.221h12v5.221zm51.318-33.446 8.124 25.225h-11.6l-2.84-25.225h6.316zm-33.319 0-2.84 25.225h-11.6l8.124-25.225h6.316zm-15.61 0h6.143l-8.124 25.225H7.495l13.394-25.225zM16 50h25v37H16V50zm28 37V50h40v37H44zm49.5-40.255H81.501v-5.243H93.5v5.243z"></path></svg>